<svg width="32" height="32" viewBox="0 0 32 32" fill="none" xmlns="http://www.w3.org/2000/svg">
  <!-- M8Flow Logo Icon - Abstract flow/infinity symbol -->
  <defs>
    <linearGradient id="m8flow-gradient" x1="0%" y1="0%" x2="100%" y2="100%">
      <stop offset="0%" style="stop-color:#1E40AF;stop-opacity:1" />
      <stop offset="100%" style="stop-color:#7C3AED;stop-opacity:1" />
    </linearGradient>
  </defs>
  
  <!-- Background circle -->
  <circle cx="16" cy="16" r="15" fill="url(#m8flow-gradient)"/>
  
  <!-- M8 symbol - stylized infinity/flow -->
  <path 
    d="M8 16C8 12.5 10.5 10 13 10C15.5 10 16 12 16 14C16 12 16.5 10 19 10C21.5 10 24 12.5 24 16C24 19.5 21.5 22 19 22C16.5 22 16 20 16 18C16 20 15.5 22 13 22C10.5 22 8 19.5 8 16Z" 
    stroke="white" 
    stroke-width="2" 
    fill="none"
    stroke-linecap="round"
    stroke-linejoin="round"
  />
  
  <!-- Center connection dot -->
  <circle cx="16" cy="16" r="2" fill="white"/>
</svg>
