<svg width="140" height="32" viewBox="0 0 140 32" fill="none" xmlns="http://www.w3.org/2000/svg">
  <!-- M8Flow Full Logo with Text - White version for dark backgrounds -->
  <defs>
    <linearGradient id="m8flow-logo-gradient-white" x1="0%" y1="0%" x2="100%" y2="100%">
      <stop offset="0%" style="stop-color:#3B82F6;stop-opacity:1" />
      <stop offset="100%" style="stop-color:#A78BFA;stop-opacity:1" />
    </linearGradient>
  </defs>
  
  <!-- Icon -->
  <circle cx="16" cy="16" r="15" fill="url(#m8flow-logo-gradient-white)"/>
  <path 
    d="M8 16C8 12.5 10.5 10 13 10C15.5 10 16 12 16 14C16 12 16.5 10 19 10C21.5 10 24 12.5 24 16C24 19.5 21.5 22 19 22C16.5 22 16 20 16 18C16 20 15.5 22 13 22C10.5 22 8 19.5 8 16Z" 
    stroke="white" 
    stroke-width="2" 
    fill="none"
    stroke-linecap="round"
    stroke-linejoin="round"
  />
  <circle cx="16" cy="16" r="2" fill="white"/>
  
  <!-- Text: M8Flow - White version -->
  <text x="40" y="22" font-family="Inter, system-ui, sans-serif" font-size="18" font-weight="600" fill="white">
    M8Flow
  </text>
</svg>
